Coordinates
version=1
nRows=14
nColumns=36
inDegrees=yes

Units are S.I. units (second, meters, Newtons, ...)
If the header above contains a line with 'inDegrees', this indicates whether rotational values are in degrees (yes) or radians (no).

endheader
time	pelvis_tilt	pelvis_list	pelvis_rotation	pelvis_tx	pelvis_ty	pelvis_tz	hip_flexion_r	hip_adduction_r	hip_rotation_r	knee_angle_r	knee_angle_r_beta	ankle_angle_r	subtalar_angle_r	mtp_angle_r	hip_flexion_l	hip_adduction_l	hip_rotation_l	knee_angle_l	knee_angle_l_beta	ankle_angle_l	subtalar_angle_l	mtp_angle_l	lumbar_extension	lumbar_bending	lumbar_rotation	arm_flex_r	arm_add_r	arm_rot_r	elbow_flex_r	pro_sup_r	arm_flex_l	arm_add_l	arm_rot_l	elbow_flex_l	pro_sup_l
      1.65000000	    -25.31740568	     -1.76315972	     -1.76787524	     -0.29795686	      0.62014446	     -0.59662964	     89.15583220	     -3.01321953	      5.34106175	     96.42174032	      1.68287684	     26.43032265	     -9.26763776	     -7.41040547	     90.12433257	     -2.25955125	      9.11522836	     96.58071234	      1.68565142	     29.13823081	    -13.18005830	     -7.41040547	    -32.09476175	      2.83470247	     -4.78710059	    -21.67942355	    -32.45640141	     -1.03856555	     63.84029886	    105.50508483	    -36.17057792	    -26.95400083	     -5.74923511	     60.17657114	    105.13277599
      1.66000000	    -26.44506020	     -1.47679670	     -1.80573037	     -0.29740492	      0.61729422	     -0.59763912	     90.47386136	     -2.98141962	      5.82525929	     96.58826965	      1.68578332	     26.30561124	     -9.53677517	     -7.41161592	     91.28564670	     -1.84629194	      8.97494753	     96.68861144	      1.68753462	     28.96304315	    -13.85764670	     -7.41161592	    -32.47119925	      2.48448528	     -4.98505153	    -22.30273308	    -31.83259205	     -1.10585688	     63.32795711	    105.41933476	    -36.87194113	    -26.09806198	     -5.99903329	     59.78147909	    105.12865970
      1.67000000	    -27.46538422	     -1.32618867	     -1.89271583	     -0.29666385	      0.61519050	     -0.59873711	     91.56703476	     -3.01186210	      6.02585473	     96.64837502	      1.68683236	     26.33684902	     -9.66036014	     -7.41239403	     92.29404063	     -1.60421782	      8.86069870	     96.76023908	      1.68878476	     28.95269224	    -14.32925287	     -7.41239403	    -32.91205886	      2.29369034	     -4.97356630	    -22.96102631	    -31.25592747	     -1.19155168	     62.85102999	    105.33944987	    -37.46895268	    -25.30129456	     -6.40773434	     59.41380730	    105.02579137
      1.68000000	    -28.44982102	     -1.22372558	     -2.31858355	     -0.29583028	      0.61365767	     -0.59862495	     92.52635525	     -2.57338065	      6.11494245	     96.52880642	      1.68474550	     26.34783638	     -9.70989849	     -7.41299248	     93.21108747	     -1.94914090	      8.77177908	     96.82212289	      1.68986483	     28.96545968	    -14.63041715	     -7.41299248	    -33.35018326	      1.92618231	     -4.70721151	    -23.52674731	    -30.53762825	     -1.30888016	     62.35868211	    105.24609898	    -37.97641180	    -24.62147349	     -7.09794889	     58.94819836	    104.80692453
      1.69000000	    -29.48695162	     -1.08410030	     -2.69070162	     -0.29498529	      0.61244826	     -0.59856052	     93.49921134	     -2.26141563	      6.16111696	     96.33146409	      1.68130122	     26.13124068	     -9.92063867	     -7.41455694	     94.10011970	     -2.25285767	      8.65961678	     96.76038755	      1.68878735	     28.92750623	    -14.86265321	     -7.41455694	    -33.66104395	      1.54239363	     -4.55696899	    -23.84999368	    -29.53478324	     -1.81095069	     61.51135161	    105.01934147	    -38.27681710	    -23.48162143	     -8.54621034	     58.45908869	    104.17205885
      1.70000000	    -30.37720493	     -0.92364215	     -2.86560433	     -0.29427001	      0.61191811	     -0.59942504	     94.25843999	     -2.29709914	      6.21498454	     96.04633913	      1.67632485	     26.11346814	     -9.95283249	     -7.41550036	     94.77571262	     -2.27163676	      8.49035657	     96.57272467	      1.68551201	     29.04958679	    -15.02564847	     -7.41550036	    -34.07374527	      1.32297292	     -4.71405697	    -23.99225221	    -28.88310440	     -1.81085196	     61.16192120	    104.89703171	    -38.37674987	    -22.66172782	     -8.62383528	     58.13183404	    103.84806791
      1.71000000	    -31.12047549	     -0.70558789	     -2.67819775	     -0.29342105	      0.61227523	     -0.60158645	     94.81093332	     -2.93903157	      6.30578232	     95.72958095	      1.67079638	     26.12408794	     -9.66299134	     -7.41725103	     95.17455259	     -1.77503943	      8.21956323	     96.16139783	      1.67833301	     28.97917272	    -15.36537146	     -7.41725103	    -34.59727475	      1.32504910	     -5.20447583	    -23.82882935	    -28.29473727	     -1.96789481	     60.76047899	    104.61354167	    -37.92811616	    -21.88623854	     -8.40307707	     57.56123945	    103.37766468
      1.72000000	    -31.82462441	     -0.57259198	     -2.44080501	     -0.29239200	      0.61289261	     -0.60367232	     95.27573299	     -3.62781487	      6.28443272	     95.41881939	      1.66537257	     26.17231097	     -9.37203192	     -7.41815259	     95.52486332	     -1.24323211	      8.09145618	     95.74595540	      1.67108217	     28.99586176	    -15.54831156	     -7.41815259	    -35.01637850	      1.44372522	     -5.65409147	    -23.55883190	    -27.77379691	     -2.11891548	     60.55392320	    104.44986996	    -37.27252288	    -21.32197962	     -8.14381256	     57.17895941	    103.15266003
      1.73000000	    -32.46080950	     -0.47080425	     -2.45771757	     -0.29110712	      0.61386991	     -0.60470240	     95.59923804	     -3.89354201	      6.25831078	     94.99141272	      1.65791291	     26.18689695	     -9.18008275	     -7.41849636	     95.77136402	     -1.13773116	      8.00307677	     95.33967305	      1.66399120	     29.01011941	    -15.57142953	     -7.41849636	    -35.37836928	      1.38979457	     -5.83385369	    -23.09583593	    -27.21608658	     -2.07602267	     60.50918107	    104.39555302	    -36.44158081	    -20.99132886	     -8.01452095	     57.05293056	    103.04782503
      1.74000000	    -33.12978108	     -0.24463251	     -2.51126873	     -0.28941292	      0.61499229	     -0.60528197	     95.99414280	     -4.10098754	      6.36456894	     94.68155485	      1.65250487	     26.27049714	     -8.55925961	     -7.41980766	     96.00053750	     -1.09631062	      7.82012257	     94.95748843	      1.65732082	     29.01762177	    -15.66619406	     -7.41980766	    -35.42789814	      1.20192985	     -6.03830092	    -21.98974247	    -26.28868998	     -2.14355591	     59.48080749	    104.11259972	    -34.77659227	    -20.75911426	     -7.72697895	     55.58739653	    102.46551554
      1.75000000	    -33.59808332	     -0.17483841	     -2.66362150	     -0.28765366	      0.61671087	     -0.60523913	     96.06871696	     -4.05690013	      6.33288867	     94.25046110	      1.64498087	     26.31887912	     -8.20947687	     -7.42091710	     96.02537332	     -1.26530513	      7.78603896	     94.58314743	      1.65078734	     28.99386011	    -15.62233741	     -7.42091710	    -35.59528451	      1.04496425	     -5.95694038	    -20.71497209	    -25.48863550	     -1.83215309	     58.66982384	    103.87184021	    -32.97263790	    -20.86628839	     -7.25366137	     54.85821181	    102.02445366
      1.76000000	    -34.05338748	     -0.15646712	     -2.72044943	     -0.28584177	      0.61861984	     -0.60536053	     96.10979121	     -4.06673706	      6.29481826	     93.84337102	      1.63787581	     26.37788333	     -7.92286208	     -7.42351845	     96.02532722	     -1.31370725	      7.81956014	     94.16103812	      1.64342014	     29.02102567	    -15.54386047	     -7.42351845	    -35.56379548	      1.01002651	     -5.91153704	    -19.04833248	    -24.78571253	     -1.11877231	     57.59750563	    103.32427116	    -30.72355298	    -21.29661152	     -5.95517837	     53.88621669	    101.08290338
      1.77000000	    -34.14169797	     -0.12430408	     -2.74547454	     -0.28370352	      0.62133835	     -0.60586494	     95.74675151	     -4.18147685	      6.25428843	     93.42971075	      1.63065607	     26.21512805	     -7.75944895	     -7.42470061	     95.60232838	     -1.31156996	      7.77521807	     93.74200225	      1.63610659	     29.02498129	    -15.50902007	     -7.42470061	    -35.85746908	      0.96835728	     -5.81181625	    -17.14064925	    -23.96125541	     -0.76312057	     56.60501833	    103.03554903	    -28.09961946	    -21.57345604	     -5.41394097	     53.29948764	    100.62103646
      1.78000000	    -34.24574577	     -0.07429327	     -2.73395891	     -0.28144069	      0.62419508	     -0.60675029	     95.39003189	     -4.39720804	      6.19388616	     93.00701932	      1.62327871	     26.12356233	     -7.63266357	     -7.42668896	     95.17251016	     -1.22747050	      7.68335561	     93.27167787	      1.62789788	     29.07235095	    -15.49775564	     -7.42668896	    -35.90055171	      1.00377280	     -5.66606739	    -14.87348562	    -23.30790298	      0.06353194	     55.19320495	    102.58203671	    -24.83598843	    -22.12446391	     -3.87341748	     52.03827718	     99.85596445
